<?xml version="1.0" encoding="UTF-8"?>
<svg width="389px" height="249px" viewBox="0 0 389 249" version="1.1" xmlns="http://www.w3.org/2000/svg" xmlns:xlink="http://www.w3.org/1999/xlink">
    <!-- Generator: Sketch 51.3 (57544) - http://www.bohemiancoding.com/sketch -->
    <title>What is and How Much Can Cost to Develop A Chatbot</title>
    <desc>Created with Sketch.</desc>
    <defs>
        <path d="M9.2579272,38.9726296 L84.9120251,2.39846189 C88.0396478,0.886446014 91.6926494,0.915330178 94.7959716,2.47661393 L210.704347,60.7902051 C213.15416,62.0227078 214.140984,65.0078141 212.908482,67.4576269 C212.436872,68.3950322 211.680415,69.1589333 210.747672,69.6396984 L140.073047,106.067637 C136.954107,107.675238 133.261113,107.72418 130.100665,106.1998 L9.26194771,47.9155961 C6.79187958,46.7242068 5.75530558,43.7560091 6.94669488,41.285941 C7.43381976,40.276001 8.24842565,39.4606624 9.2579272,38.9726296 Z" id="path-1"></path>
        <linearGradient x1="29.7769469%" y1="12.2520042%" x2="83.8124876%" y2="78.9985729%" id="linearGradient-3">
            <stop stop-color="#42CEFF" offset="0%"></stop>
            <stop stop-color="#3F91FF" offset="100%"></stop>
        </linearGradient>
        <linearGradient x1="50%" y1="0%" x2="50%" y2="100%" id="linearGradient-4">
            <stop stop-color="#DFF8FF" offset="0%"></stop>
            <stop stop-color="#BBEDFF" offset="100%"></stop>
        </linearGradient>
        <linearGradient x1="50%" y1="0%" x2="50%" y2="100%" id="linearGradient-5">
            <stop stop-color="#C7F1FF" offset="0%"></stop>
            <stop stop-color="#DDF7FF" offset="100%"></stop>
        </linearGradient>
        <linearGradient x1="29.1750124%" y1="24.6178902%" x2="54.6874265%" y2="122.079738%" id="linearGradient-6">
            <stop stop-color="#F06799" offset="0%"></stop>
            <stop stop-color="#E0126F" offset="44.115396%"></stop>
            <stop stop-color="#25336F" offset="100%"></stop>
        </linearGradient>
        <linearGradient x1="56.2202735%" y1="28.8010872%" x2="66.2382593%" y2="69.1719373%" id="linearGradient-7">
            <stop stop-color="#2A86D8" offset="0%"></stop>
            <stop stop-color="#144A7B" offset="100%"></stop>
        </linearGradient>
        <linearGradient x1="50%" y1="44.868527%" x2="66.5543734%" y2="96.6402506%" id="linearGradient-8">
            <stop stop-color="#F06799" offset="0%"></stop>
            <stop stop-color="#E0126F" offset="44.115396%"></stop>
            <stop stop-color="#25336F" offset="100%"></stop>
        </linearGradient>
        <linearGradient x1="34.0405302%" y1="-10.7013416%" x2="72.2400655%" y2="50%" id="linearGradient-9">
            <stop stop-color="#E7FAFF" offset="0%"></stop>
            <stop stop-color="#C4EBF8" offset="100%"></stop>
        </linearGradient>
        <linearGradient x1="2.77010066%" y1="55.6507798%" x2="50%" y2="100%" id="linearGradient-10">
            <stop stop-color="#2A86D8" offset="0%"></stop>
            <stop stop-color="#144A7B" offset="100%"></stop>
        </linearGradient>
        <linearGradient x1="50%" y1="0%" x2="50%" y2="100%" id="linearGradient-11">
            <stop stop-color="#E0F8FF" offset="0%"></stop>
            <stop stop-color="#BEEEFF" offset="100%"></stop>
        </linearGradient>
        <path d="M13.7999076,4.21309849 L13.7999076,4.21309849 C14.1600604,4.64386063 14.7576786,4.79183227 15.2772157,4.57888338 C18.0690223,3.43458677 20.5189072,3.31265432 22.6268755,4.21309849 C24.3644166,4.95531019 25.6838052,6.39215092 26.5850413,8.52362067 L26.5850258,8.52362723 C27.3589973,10.3541096 29.4703244,11.2105809 31.3008068,10.4366094 C31.4834363,10.3593893 31.6593709,10.2672064 31.8268138,10.1610022 C31.8268138,10.1610022 31.8268138,10.1610022 31.8268138,10.1610022 C33.6502251,9.00446539 34.3132837,7.47618457 33.8159897,5.57615976 C31.1637552,2.02393947 27.7241386,0.247829323 23.4971399,0.247829323 C19.6855076,0.247829323 16.5141161,1.12106717 13.9829653,2.86754287 L13.982981,2.86756568 C13.5653351,3.15573831 13.4603763,3.72791726 13.7485489,4.14556313 C13.7646193,4.1688538 13.7817572,4.19138961 13.7999076,4.21309849 Z" id="path-12"></path>
        <filter x="-16.8%" y="-23.9%" width="133.7%" height="166.8%" filterUnits="objectBoundingBox" id="filter-13">
            <feOffset dx="0" dy="1" in="SourceAlpha" result="shadowOffsetOuter1"></feOffset>
            <feGaussianBlur stdDeviation="1" in="shadowOffsetOuter1" result="shadowBlurOuter1"></feGaussianBlur>
            <feColorMatrix values="0 0 0 0 0   0 0 0 0 0   0 0 0 0 0  0 0 0 0.042798913 0" type="matrix" in="shadowBlurOuter1"></feColorMatrix>
        </filter>
        <path d="M0.355209976,0 C0.118403325,2.45325996 0,4.25565504 0,5.40718522 C0,6.55871541 0.118403325,8.06071131 0.355209976,9.91317291 C0.854762432,9.51841441 1.23957324,8.99271585 1.5096424,8.33607722 C1.77971156,7.67943859 2.1053207,6.47784187 2.48646983,4.73128707 C2.16154316,3.22141876 1.86553485,2.17002163 1.59844489,1.57709569 C1.33135494,0.984169748 0.916943297,0.458471185 0.355209976,0 Z" id="path-14"></path>
    </defs>
    <g id="What-is-and-How-Much-Can-Cost-to-Develop-A-Chatbot" stroke="none" stroke-width="1" fill="none" fill-rule="evenodd">
        <g id="Group-Copy-2" transform="translate(57.000000, 7.000000)">
            <g id="Group-4" transform="translate(0.000000, 90.114943)">
                <g id="Group-290" transform="translate(0.000000, 0.229885)">
                    <polygon id="Path-56" fill="#70829A" fill-rule="nonzero" points="0 58.5747126 106.608295 3.95402299 269 85.8850575 163.631336 140.505747"></polygon>
                    <path d="M0,58.5747126 L0,61.4458341 C3.43826709e-16,64.2533923 1.57872978,66.8224153 4.08346817,68.0907482 L160.312152,147.200797 L164.251152,149.195402 L164.251152,139.885057 L0,58.5747126 Z" id="Path-60" fill="#8CA6C8" fill-rule="nonzero"></path>
                    <path d="M269,85.8850575 L269,90.7927546 C269,94.0677261 267.15872,97.0645413 264.237225,98.5445104 L164.251152,149.195402 L164.251152,139.885057 L269,85.8850575 Z" id="Path-61" fill="#4A586A" fill-rule="nonzero"></path>
                    <g id="Path-57-Copy" transform="translate(26.032258, 17.609195)">
                        <mask id="mask-2" fill="white">
                            <use xlink:href="#path-1"></use>
                        </mask>
                        <use id="Mask" fill="#476793" fill-rule="nonzero" xlink:href="#path-1"></use>
                        <path d="M9.2579272,40.2140089 L84.9120251,3.6398412 C88.0396478,2.12782532 91.6926494,2.15670949 94.7959716,3.71799324 L210.704347,62.0315844 C213.15416,63.2640871 214.140984,66.2491935 212.908482,68.6990062 C212.436872,69.6364115 211.680415,70.4003126 210.747672,70.8810777 L140.073047,107.309017 C136.954107,108.916617 133.261113,108.96556 130.100665,107.441179 L9.26194771,49.1569754 C6.79187958,47.9655861 5.75530558,44.9973884 6.94669488,42.5273203 C7.43381976,41.5173803 8.24842565,40.7020417 9.2579272,40.2140089 Z" fill="url(#linearGradient-3)" fill-rule="nonzero" mask="url(#mask-2)"></path>
                    </g>
                    <path d="M117.561121,119.480442 L130.029247,125.134347 C131.233963,125.680648 132.007742,126.881152 132.007742,128.203946 L132.007742,128.203946 C132.007742,128.977265 131.380843,129.604165 130.607523,129.604165 C130.408062,129.604165 130.210903,129.56155 130.029247,129.479175 L117.561121,123.82527 C116.356405,123.278969 115.582626,122.078465 115.582626,120.75567 L115.582626,120.75567 C115.582626,119.982351 116.209525,119.355452 116.982845,119.355452 C117.182306,119.355452 117.379465,119.398067 117.561121,119.480442 Z" id="Path-58-Copy" fill="#4A586A" fill-rule="nonzero" transform="translate(123.795184, 124.479808) rotate(3.000000) translate(-123.795184, -124.479808) "></path>
                    <path d="M98.9666508,109.549407 L111.434777,115.203313 C112.639493,115.749614 113.413272,116.950117 113.413272,118.272912 L113.413272,118.272912 C113.413272,119.046231 112.786373,119.67313 112.013053,119.67313 C111.813592,119.67313 111.616433,119.630516 111.434777,119.54814 L98.9666508,113.894235 C97.761935,113.347934 96.9881563,112.14743 96.9881563,110.824636 L96.9881563,110.824636 C96.9881563,110.051317 97.6150554,109.424418 98.3883746,109.424418 C98.5878355,109.424418 98.7849946,109.467032 98.9666508,109.549407 Z" id="Path-58-Copy-2" fill="#4A586A" fill-rule="nonzero" transform="translate(105.200714, 114.548774) rotate(3.000000) translate(-105.200714, -114.548774) "></path>
                    <path d="M185.324885,121.885057 L185.324885,121.885057 C186.473083,122.651602 187.945973,122.737534 189.175522,122.109713 L244.645404,93.7861923 C245.190288,93.5079684 245.406459,92.8407072 245.128235,92.2958227 C245.010636,92.0655103 244.816166,91.8835977 244.578528,91.7816092 L244.578528,91.7816092 C243.203496,91.1914786 241.637732,91.2404998 240.302308,91.9154896 L185.460782,119.635132 C184.817579,119.960239 184.559711,120.745209 184.884818,121.388412 C184.986263,121.589114 185.137852,121.760193 185.324885,121.885057 Z" id="Path-59" fill="#4A586A" fill-rule="nonzero"></path>
                    <polygon id="Path-62" fill="url(#linearGradient-4)" fill-rule="nonzero" points="3.71889401 34.3678161 53.9239631 60.4367816 122.723502 26.2988506 70.6589862 0.229885057"></polygon>
                    <g id="Group-2-Copy" transform="translate(55.783410, 31.264368)" fill-rule="nonzero">
                        <polygon id="Path-57-Copy-2" fill="#659821" points="3.09907834 30.7241379 3.09907834 28.862069 61.671659 1.86206897 162.391705 47.1724138 162.391705 49.0344828 103.199309 80.0689655"></polygon>
                        <polygon id="Path-57" fill="#79AE32" points="3.09907834 28.862069 61.671659 0 162.391705 47.1724138 103.199309 78.2068966"></polygon>
                        <polygon id="Path-57-Copy-3" fill="#60931C" points="13.6359447 28.5960591 62.5507361 5.5862069 151.695664 47.3349754 102.218939 72.3103448"></polygon>
                        <polygon id="Path-57-Copy-4" fill="#8CC63F" points="18.0916908 28.5317218 62.9112903 7.44827586 147.913981 46.9431779 102.579493 69.8275862"></polygon>
                        <path d="M79.3364055,54.194279 C96.1098279,60.991627 109.707373,58.7209841 109.707373,49.122656 C109.707373,39.5243279 96.1098279,26.2330063 79.3364055,19.4356583 C62.5629832,12.6383102 48.9654378,14.9089532 48.9654378,24.5072813 C48.9654378,34.1056093 62.5629832,47.3969309 79.3364055,54.194279 Z" id="Oval" fill="#60931C" opacity="0.280133929" transform="translate(79.336406, 36.814969) rotate(-8.000000) translate(-79.336406, -36.814969) "></path>
                        <g transform="translate(0.000000, 4.965517)">
                            <polygon id="Path-57-Copy-2" fill="#659821" points="0 30.7241379 0 28.862069 58.5725806 1.86206897 159.292627 47.1724138 159.292627 49.0344828 100.10023 80.0689655"></polygon>
                            <polygon id="Path-57" fill="#79AE32" points="0 28.862069 58.5725806 0 159.292627 47.1724138 100.10023 78.2068966"></polygon>
                            <polygon id="Path-57-Copy-3" fill="#60931C" points="10.5368664 28.5960591 59.4516577 5.5862069 148.596586 47.3349754 99.1198605 72.3103448"></polygon>
                            <polygon id="Path-57-Copy-4" fill="#8CC63F" points="14.9926124 28.5317218 59.812212 7.44827586 144.814903 46.9431779 99.4804147 69.8275862"></polygon>
                            <path d="M76.2373272,54.194279 C93.0107495,60.991627 106.608295,58.7209841 106.608295,49.122656 C106.608295,39.5243279 93.0107495,26.2330063 76.2373272,19.4356583 C59.4639049,12.6383102 45.8663594,14.9089532 45.8663594,24.5072813 C45.8663594,34.1056093 59.4639049,47.3969309 76.2373272,54.194279 Z" id="Oval" fill="#60931C" opacity="0.280133929" transform="translate(76.237327, 36.814969) rotate(-8.000000) translate(-76.237327, -36.814969) "></path>
                        </g>
                        <g id="Group-2" transform="translate(0.000000, 1.241379)">
                            <polygon id="Path-57-Copy-2" fill="#659821" points="0 30.7241379 0 28.862069 58.5725806 1.86206897 159.292627 47.1724138 159.292627 49.0344828 100.10023 80.0689655"></polygon>
                            <polygon id="Path-57" fill="#8CC63F" points="0 28.862069 58.5725806 0 159.292627 47.1724138 100.10023 78.2068966"></polygon>
                            <polygon id="Path-57-Copy-3" fill="#60931C" points="10.5368664 28.5960591 59.4516577 5.5862069 148.596586 47.3349754 99.1198605 72.3103448"></polygon>
                            <polygon id="Path-57-Copy-4" fill="#8CC63F" points="14.9926124 28.5317218 59.812212 7.44827586 144.814903 46.9431779 99.4804147 69.8275862"></polygon>
                            <path d="M76.2373272,54.194279 C93.0107495,60.991627 106.608295,58.7209841 106.608295,49.122656 C106.608295,39.5243279 93.0107495,26.2330063 76.2373272,19.4356583 C59.4639049,12.6383102 45.8663594,14.9089532 45.8663594,24.5072813 C45.8663594,34.1056093 59.4639049,47.3969309 76.2373272,54.194279 Z" id="Oval" fill="#60931C" opacity="0.280133929" transform="translate(76.237327, 36.814969) rotate(-8.000000) translate(-76.237327, -36.814969) "></path>
                        </g>
                    </g>
                    <g id="Group-2" transform="translate(58.882488, 27.540230)" fill-rule="nonzero">
                        <polygon id="Path-57-Copy-2" fill="#659821" points="0 30.7241379 0 28.862069 58.5725806 1.86206897 159.292627 47.1724138 159.292627 49.0344828 100.10023 80.0689655"></polygon>
                        <polygon id="Path-57" fill="#8CC63F" points="0 28.862069 58.5725806 0 159.292627 47.1724138 100.10023 78.2068966"></polygon>
                        <polygon id="Path-57-Copy-3" fill="#60931C" points="10.5368664 28.5960591 59.4516577 5.5862069 148.596586 47.3349754 99.1198605 72.3103448"></polygon>
                        <polygon id="Path-57-Copy-4" fill="#8CC63F" points="14.9926124 28.5317218 59.812212 7.44827586 144.814903 46.9431779 99.4804147 69.8275862"></polygon>
                        <path d="M76.2373272,54.194279 C93.0107495,60.991627 106.608295,58.7209841 106.608295,49.122656 C106.608295,39.5243279 93.0107495,26.2330063 76.2373272,19.4356583 C59.4639049,12.6383102 45.8663594,14.9089532 45.8663594,24.5072813 C45.8663594,34.1056093 59.4639049,47.3969309 76.2373272,54.194279 Z" id="Oval" fill="#60931C" opacity="0.280133929" transform="translate(76.237327, 36.814969) rotate(-8.000000) translate(-76.237327, -36.814969) "></path>
                    </g>
                    <polygon id="Path-62-Copy" fill="url(#linearGradient-5)" fill-rule="nonzero" points="131.400922 69.1264368 181.605991 95.1954023 250.40553 61.0574713 198.341014 34.9885057"></polygon>
                    <polygon id="Path-63" fill="url(#linearGradient-6)" fill-rule="nonzero" points="3.71889401 33.7471264 3.71889401 36.8505747 54.5437788 62.9195402 122.723502 29.4022989 122.723502 26.2988506 53.9239631 59.816092"></polygon>
                    <polygon id="Path-63-Copy" fill="url(#linearGradient-7)" fill-rule="nonzero" points="131.400922 68.5057471 131.400922 71.6091954 182.225806 97.6781609 250.40553 64.1609195 250.40553 61.0574713 181.605991 94.5747126"></polygon>
                    <polygon id="Path-64" fill="#67ABC4" fill-rule="nonzero" points="50.8248848 52.3678161 54.5437788 53.6091954 110.947005 26.2988506 107.847926 25.0574713"></polygon>
                    <polygon id="Path-64-Copy" fill="#67ABC4" fill-rule="nonzero" points="44.6267281 48.6436782 48.3456221 49.8850575 104.748848 22.5747126 101.64977 21.3333333"></polygon>
                    <polygon id="Path-64-Copy-6" fill="#67ABC4" fill-rule="nonzero" points="142.557604 68.5057471 146.276498 69.7471264 202.679724 42.4367816 199.580645 41.1954023"></polygon>
                    <polygon id="Path-64-Copy-7" fill="#67ABC4" fill-rule="nonzero" points="151.235023 72.2298851 154.953917 73.4712644 211.357143 46.1609195 208.258065 44.9195402"></polygon>
                    <polygon id="Path-64-Copy-8" fill="#67ABC4" fill-rule="nonzero" points="157.43318 75.954023 161.152074 77.1954023 217.5553 49.8850575 214.456221 48.6436782"></polygon>
                    <polygon id="Path-64-Copy-2" fill="#67ABC4" fill-rule="nonzero" points="64.4608295 32.5057471 68.1797235 33.7471264 97.9308756 18.8505747 94.8317972 17.6091954"></polygon>
                    <polygon id="Path-64-Copy-9" fill="#67ABC4" fill-rule="nonzero" points="164.870968 79.6781609 168.589862 80.9195402 198.341014 66.0229885 195.241935 64.7816092"></polygon>
                </g>
            </g>
            <g id="Group-294" transform="translate(11.935154, 0.000000)">
                <path d="M99.5917786,82.3264287 L32.341908,115.449532 C31.9028824,115.666587 31.3881348,115.664167 30.9507203,115.443884 L0.860948511,99.8683597 C-0.29260149,99.2882011 -0.285351525,97.6364839 0.873031786,97.066008 L68.1220968,63.9420977 C68.5611225,63.7258494 69.0766756,63.7282701 69.5132846,63.9485528 L99.6038619,79.5232701 C100.756606,80.1042356 100.749356,81.7559528 99.5917786,82.3264287" id="Fill-90" fill="url(#linearGradient-8)"></path>
                <polygon id="Fill-92" fill="#F06799" points="0 98.5394851 2.08960105 98.5394851 2.08960105 96.0574713 0 96.0574713"></polygon>
                <path d="M32.341908,113.02894 C31.9028824,113.245996 31.3881348,113.243575 30.9507203,113.023292 L0.860948511,97.4485749 C-0.29260149,96.8676094 -0.285351525,95.2158922 0.873031786,94.6454163 L68.1220968,61.521506 C68.5611225,61.3052577 69.0766756,61.3076784 69.5132846,61.5271542 L99.6038619,77.1026784 C100.756606,77.6836439 100.749356,79.3345542 99.5917786,79.9050301 L32.341908,113.02894 Z" id="Fill-93" fill="url(#linearGradient-9)"></path>
                <path d="M31.9513098,90.3787469 C28.625187,88.24854 22.4876887,88.2703262 18.2424314,90.4287745 C13.9971741,92.5872228 13.2528443,96.0633331 16.5789672,98.1943469 C19.9050901,100.325361 26.0425883,100.302768 30.2870401,98.1451262 C34.5322974,95.986678 35.2774327,92.5097607 31.9513098,90.3787469" id="Fill-95" fill="#FCD54E"></path>
                <path d="M29.4213811,94.0267974 C28.8438006,93.6572388 28.0414711,93.5273284 27.6282231,93.7371215 C27.2157806,93.9469147 27.3495022,94.4173353 27.9262772,94.786894 C28.5038578,95.1572595 29.3069928,95.2863629 29.7194352,95.0773767 C30.1326833,94.8667767 29.9989617,94.3971629 29.4213811,94.0267974" id="Fill-96" fill="#000105"></path>
                <path d="M25.3936227,95.6405905 C24.8160422,95.2710319 24.0137127,95.1411215 23.6004647,95.3509147 C23.1880223,95.5607078 23.3217438,96.0311284 23.8985188,96.4006871 C24.4760994,96.7710526 25.2792344,96.900156 25.6916769,96.6911698 C26.1049249,96.4805698 25.9712033,96.010956 25.3936227,95.6405905" id="Fill-96-Copy" fill="#000105"></path>
                <path d="M27.8285882,91.3226023 C27.3500905,91.2515954 26.8522596,91.216092 26.3479842,91.216092 C24.785214,91.2168989 23.1523607,91.5541816 21.7958117,92.2424644 C21.0168432,92.6386506 20.4094573,93.1106851 19.9881537,93.633554 C19.5676558,94.1556161 19.3332402,94.7365816 19.3332402,95.3248092 C19.3332402,95.5660713 19.3727123,95.8065264 19.4524619,96.0381057 C19.5177116,96.2301471 19.7263495,96.3334299 19.9188763,96.2672644 C20.1105976,96.2019057 20.2129027,95.9921126 20.147653,95.8000713 C20.093681,95.6435333 20.0679034,95.4853816 20.0679034,95.3248092 C20.0679034,94.9358851 20.2209582,94.5179126 20.5600954,94.0950989 C20.8984271,93.6747057 21.4220357,93.2575402 22.1285046,92.8992782 C23.3569709,92.2731264 24.8915468,91.9511747 26.3479842,91.9519816 C26.8184264,91.9519816 27.2800075,91.9850644 27.7198387,92.050423 C27.9204211,92.0810851 28.1073091,91.9422989 28.1379201,91.7413816 C28.1677255,91.5404644 28.0291706,91.3524575 27.8285882,91.3226023" id="Fill-98" fill="#000105"></path>
                <path d="M63.6385824,28.9503057 C63.6385824,28.9503057 64.9894926,29.7321885 66.2509865,29.4917333 C67.5124805,29.2512782 67.4520641,26.6643678 67.4520641,26.6643678 C67.4520641,26.6643678 64.5093838,27.115423 63.6385824,28.9503057" id="Fill-131" fill="#C38D56"></path>
                <path d="M61.082567,19.0361675 L62.2844501,18.1937675 C62.2844501,18.1937675 60.6427358,15.1057744 57.9997207,15.3857675 C58.5201071,18.35434 60.4026814,19.3968503 60.4026814,19.3968503 L61.082567,19.0361675" id="Fill-132" fill="#8CC63F"></path>
                <path d="M62.0121736,17.7885057 L67.4440086,26.234292 C67.4440086,26.234292 67.8935064,27.6237678 66.7923173,28.5944644 C65.6911281,29.5659678 64.0792192,28.6541747 64.0792192,28.6541747 L58.8052724,19.6887471 L62.0121736,17.7885057" id="Fill-133" fill="#C38D56"></path>
                <path d="M63.3453315,36.8578306 L61.4313407,31.7784168 L61.5562012,27.3017547 L63.2075821,24.7148444 C63.6377467,23.851465 63.6168024,22.8315478 63.1519991,21.9867271 L61.3854242,19.2900788 C60.6902331,18.0264788 60.5484561,16.4473823 59.3038787,15.7203685 L58.4580495,14.9844788 C57.0974727,14.1896857 55.1190378,14.5447202 52.7394381,15.7873409 C51.5021107,16.433665 49.0089283,18.0748926 49.0089283,18.0748926 C46.846022,20.2002582 47.7176289,21.8487478 47.6249905,24.0370513 C47.5710185,25.3167892 50.2140336,28.7799892 50.2583389,30.6269754 C50.3026443,32.4747685 49.6799528,38.1165892 49.6799528,38.1165892 C49.6799528,38.1165892 52.3471344,42.688465 56.6810025,41.7395547 C61.0140649,40.7906444 63.3453315,36.8578306 63.3453315,36.8578306" id="Fill-134" fill="#8CC63F"></path>
                <path d="M49.9442039,54.9057471 C49.9442039,54.9057471 50.7175336,66.2894437 50.9938378,67.1746092 C50.9938378,67.1746092 50.023148,69.8317195 50.5741454,72.7728575 C51.1243372,75.7131885 52.4502752,80.8749057 52.4502752,80.8749057 C52.4502752,80.8749057 52.8893009,81.8851402 54.0331843,81.4849195 C55.1770676,81.0846989 54.9168744,79.9889333 54.9168744,79.9889333 L57.0113088,55.5125333 L49.9442039,54.9057471" id="Fill-135" fill="#D89A68"></path>
                <path d="M57.9997207,50.8712644 C57.9997207,50.8712644 58.5539403,62.2170368 58.8125224,63.0933264 C58.8125224,63.0933264 57.7991383,65.7689954 58.2905249,68.6915747 C58.7819114,71.614154 60.0007111,76.7363333 60.0007111,76.7363333 C60.0007111,76.7363333 60.4163757,77.7344644 61.5594536,77.308423 C62.7017258,76.8823816 62.4640881,75.7946851 62.4640881,75.7946851 L64.9999648,51.3126368 L57.9997207,50.8712644" id="Fill-136" fill="#D5925D"></path>
                <path d="M47.2829145,56.3355678 C50.580843,57.620954 54.359686,58.8579264 57.3716437,58.1107402 C64.2985825,56.3928575 66.6918766,55.3527678 66.6918766,55.3527678 C66.6918766,55.3527678 69.5419184,54.3320437 68.0524534,51.9944644 C66.5629883,49.6568851 63.531106,37.3767264 63.531106,37.3767264 C63.531106,37.3767264 60.5825727,38.315954 56.472648,38.7653954 C52.2797515,39.2220989 49.450654,37.3767264 49.450654,37.3767264 L45.4228957,52.5254023 C45.4228957,52.5254023 43.9849859,55.0501816 47.2829145,56.3355678 Z" id="Fill-137" fill="#DD1D70"></path>
                <path d="M67.2225023,80.3964161 C67.2225023,80.3964161 63.3075212,80.4222368 62.4923029,80.0994782 L60.0120093,79.1174851 L59.5077339,78.7140368 C59.1138191,78.400154 58.8850425,77.9612023 58.8085151,77.4988506 C58.7754874,78.1112851 58.9937919,78.7285609 59.5077339,79.1384644 L60.0120093,79.5419126 L62.4923029,80.5239057 C63.3075212,80.8466644 67.2225023,80.8208437 67.2225023,80.8208437 C68.4050522,80.8539264 69.282298,79.820292 69.1485764,78.7067747 C69.0462713,79.6435816 68.2519974,80.4254644 67.2225023,80.3964161" id="Fill-138" fill="#EDEDE8"></path>
                <path d="M61.2382023,75.0781609 C61.186647,75.2855333 61.2704244,75.7277126 61.3115075,76.0827471 C61.3654795,75.9003885 61.2776743,75.4501402 61.2382023,75.0781609" id="Fill-139" fill="#DE4D65"></path>
                <path d="M59.6733767,76.3094851 C59.795015,77.0921747 60.7793991,76.972754 60.9654816,76.8501057 C61.0412034,76.8000782 61.0323424,76.5951264 61.0041481,76.3482161 L60.9654816,76.4256782 C60.7793991,76.5483264 59.795015,76.6677471 59.6733767,75.8850575 C59.5203219,75.9294368 59.3551838,75.9576782 59.1739347,75.9625195 C58.851714,76.403892 58.7494089,76.9372506 58.8331863,77.4415609 C58.8525195,77.0728092 58.9419358,76.7048644 59.1739347,76.3869471 C59.3551838,76.3829126 59.5203219,76.3530575 59.6733767,76.3094851" id="Fill-140" fill="#DE4D65"></path>
                <path d="M60.0087666,79.3642318 L62.4890602,80.3462249 C63.3042785,80.6689835 67.2192596,80.6431628 67.2192596,80.6431628 C68.2487547,80.6722111 69.0430286,79.8903284 69.1453337,78.9535215 C69.1292227,78.8179628 69.1058617,78.6824042 69.0583341,78.5468456 L66.032682,77.5705008 L63.2317788,75.6226525 C62.6453372,74.7495904 61.745536,75.0820318 60.9665675,75.5427697 L60.902929,75.6476663 C60.942401,76.0196456 61.0302061,76.4698939 60.9762342,76.6522525 C61.0044285,76.8991628 61.0132895,77.1041146 60.9375677,77.1541422 C60.7514852,77.2767904 59.7671011,77.3962111 59.6454628,76.6135215 C59.492408,76.6570939 59.3272699,76.686949 59.1460207,76.6909835 C58.9140219,77.0089008 58.8246056,77.3768456 58.8052724,77.7455973 C58.8817998,78.207949 59.1105765,78.6469008 59.5044912,78.9607835 L60.0087666,79.3642318" id="Fill-141" fill="#25326A"></path>
                <path d="M60.0021404,84.4664023 C60.0021404,84.4664023 56.0871593,84.492223 55.2727465,84.1694644 L52.7916474,83.1874713 L52.287372,82.7848299 C51.8837906,82.4620713 51.6445418,82.0094023 51.5736532,81.5333333 C51.4834314,82.199023 51.7267081,82.8937609 52.287372,83.3407816 L52.7916474,83.7442299 L55.2727465,84.726223 C56.0871593,85.0489816 60.0021404,85.0231609 60.0021404,85.0231609 C61.1943569,85.0570506 62.0740193,84.0048575 61.9233812,82.8816575 C61.7743541,83.7716644 60.992969,84.4946437 60.0021404,84.4664023" id="Fill-142" fill="#EDEDE8"></path>
                <path d="M52.2690261,82.8909959 L52.7733014,83.2936373 L55.2544006,84.2756304 C56.0688133,84.598389 59.9837945,84.5725683 59.9837945,84.5725683 C60.9746231,84.6008097 61.7560082,83.8778304 61.9050352,82.9878235 C61.8881187,82.8611407 61.8671743,82.7352648 61.822869,82.6085821 L58.7972169,81.6322373 L55.9963137,79.684389 C55.041735,78.2626373 53.2260215,79.9006373 52.4824973,80.2233959 C52.2988315,80.3032786 52.1159713,80.479989 51.9435832,80.6994648 C51.7236676,80.9818786 51.6012237,81.3078648 51.5553073,81.6394993 C51.6261958,82.1155683 51.8654447,82.5682373 52.2690261,82.8909959" id="Fill-143" fill="#25326A"></path>
                <path d="M54.2015446,81.2016989 C54.2015446,81.2016989 54.2522943,81.1492506 54.3441272,81.0645264 C54.6155981,80.8087402 55.2568173,80.2947471 55.7941202,80.2350368 L55.774787,80.077692 L55.6330099,80.0058782 C55.5234549,80.2269678 55.2503728,80.6417126 55.0087073,80.9919057 C54.7670418,81.3429057 54.5551817,81.6341954 54.5543762,81.6350023 L54.5648484,81.8351126 L54.7622085,81.8665816 L56.0277302,81.1314989 L55.4960661,82.1312437 L55.5379548,82.331354 L55.7417594,82.3248989 L56.4417838,81.7011678 L56.1662851,82.3200575 L56.204146,82.5024161 L56.3894229,82.5233954 L57.1087806,82.1159126 L56.6923103,82.5540575 L56.6770049,82.7533609 L56.8687262,82.8106506 L57.7636941,82.4378644 L57.1732247,82.8518023 L57.1337527,83.072892 L57.3552794,83.1124299 L59.1427985,81.8593195 L59.1911316,81.6519471 C59.1516596,81.5809402 59.0654656,81.5502782 58.9905493,81.5817471 L57.4406678,82.2272644 L58.074637,81.5599609 L58.0843036,81.3517816 L57.8813046,81.3114368 L56.6528383,82.0085954 L57.0322531,81.1565126 L56.9806978,80.9636644 L56.7817266,80.9733471 L56.1936739,81.4962161 L56.570672,80.7885678 L56.5408666,80.599754 L56.3507564,80.576354 L54.6035148,81.590623 L54.6824589,81.7286023 L54.8113472,81.8222023 C54.8137638,81.8173609 55.6636208,80.6538161 55.9173696,80.1486989 L55.9052864,79.9857057 L55.7554537,79.9195402 C55.2979004,79.9776368 54.8620969,80.2463333 54.5302096,80.4948575 C54.1991279,80.7441885 53.9759901,80.9781885 53.9719623,80.982223 L53.9767956,81.2065402 L54.2015446,81.2016989" id="Fill-144" fill="#EDEDE8"></path>
                <path d="M63.4613611,75.1014926 L62.0911177,75.9366305 L62.0274791,76.1343202 C62.0580901,76.2069408 62.1370341,76.2464788 62.2135615,76.2271133 L63.2350011,75.9664857 L62.4165606,76.4102788 C62.345672,76.4482029 62.315061,76.5337339 62.3440609,76.6079684 C62.3730608,76.6830098 62.4536159,76.7241615 62.5309489,76.704796 L64.0663304,76.3134512 L62.9031138,77.0517615 C62.8338363,77.0961408 62.8088642,77.1865133 62.8475307,77.2599408 C62.8853916,77.3333684 62.9723912,77.3648374 63.0489186,77.3333684 L64.6229666,76.6822029 L64.0719692,77.1889339 L64.0429694,77.3866236 L64.2298574,77.4568236 L65.30688,77.0969477 L64.5327448,77.7618305 L64.5013283,77.9675891 L64.699494,78.0289133 L65.9521269,77.4834512 L65.6234618,77.9038443 L65.6508505,78.1273546 L65.8739883,78.0999202 L66.5885127,77.1857064 L66.5893182,76.9896305 L66.4000136,76.9412167 L65.5412955,77.3148098 L66.1301538,76.8104995 L66.1647925,76.611196 L65.9762934,76.5385753 L64.8348267,76.9194305 L65.4986013,76.3094167 L65.5251845,76.1068857 L65.330241,76.0447546 L64.6205499,76.338465 L65.0789088,76.0479822 L65.1401308,75.8502926 C65.1087143,75.7784788 65.0305757,75.7397477 64.9548539,75.7591133 L63.6925544,76.0802581 L64.5134116,75.6356581 C64.5834946,75.5977339 64.6149111,75.5130098 64.5859112,75.4379684 C64.5569114,75.3637339 64.4763562,75.3217753 64.3982177,75.3419477 L63.1616959,75.6566374 L63.6264992,75.3734167 C63.7014155,75.3274236 63.725582,75.2297891 63.6796656,75.1547477 C63.6337491,75.0797064 63.5362774,75.0554995 63.4613611,75.1014926" id="Fill-145" fill="#EDEDE8"></path>
                <polyline id="Fill-146" fill="#F7EBDB" points="63.0432798 27.5801954 63.8842757 23.4755126 67.1572322 22.6298851 67.3980921 22.754954 66.3468472 27.5697057 63.0432798 28.6331954 62.8330308 28.3507816 63.0432798 27.5801954"></polyline>
                <path d="M50.6603394,21.016092 L54.2764609,28.7082368 C54.3980992,29.0390644 54.7759029,29.1947954 55.0949014,29.0471333 L62.1603951,26.7369885 L63.3485838,25.6952851 L64.9395484,25.7549954 L64.9524372,26.179423 L63.7449153,26.5860989 L65.6081563,26.9040161 L67.8604788,25.9906092 L67.4053421,28.6033402 L64.9524372,29.8943747 L61.6537031,29.4045885 L54.8717635,32.341692 C54.0009622,32.8379333 52.8933286,32.5200161 52.4172476,31.6372713 L47.5275489,23.3109057 C47.5275489,23.3109057 48.8647647,21.3678989 50.6603394,21.016092" id="Fill-147" fill="#D89A68"></path>
                <path d="M48.2491635,25.3013912 C48.2491635,25.3013912 48.201636,24.2145015 49.7136565,23.4995912 C51.2264825,22.7830671 52.5338929,22.8306739 52.5338929,22.8306739 C52.5338929,22.8306739 52.2076445,18.5839774 50.5723746,17.9634739 C48.9371047,17.3437774 47.921304,18.4395429 47.59425,20.1574257 C47.2671961,21.8753084 48.2491635,25.3013912 48.2491635,25.3013912" id="Fill-148" fill="#8CC63F"></path>
                <path d="M51.5553073,17.2874855 L53.0512168,18.2686717 C53.0512168,18.2686717 56.3531731,21.9368235 57.5905005,21.3687683 C58.8286334,20.8007131 57.9513876,16.9768304 57.9513876,16.9768304 L56.6109496,15.3751407 C56.6109496,15.3751407 54.8234304,15.2960648 53.1728551,15.6575545 C52.2899704,16.9687614 51.5553073,17.2874855 51.5553073,17.2874855" id="Fill-149" fill="#D89A68"></path>
                <path d="M52.4808862,13.754023 C52.4808862,13.754023 53.1221053,15.3581333 52.360859,16.5216782 C53.3218821,16.9227057 54.8032917,17.2833885 54.8032917,17.2833885 L56.6455883,16.562023 L56.445006,14.315623 L52.4808862,13.754023" id="Fill-150" fill="#D89A68"></path>
                <path d="M58.6779952,9.86074713 C58.6779952,12.6735885 56.9033649,16.0286644 54.7138754,16.0286644 C52.524386,16.0286644 50.7497556,12.6735885 50.7497556,9.86074713 C50.7497556,7.04709885 52.524386,4.87816092 54.7138754,4.87816092 C56.9033649,4.87816092 58.6779952,7.04709885 58.6779952,9.86074713" id="Fill-151" fill="#D89A68"></path>
                <path d="M51.8350072,10.6860659 C51.8350072,10.6860659 51.3138153,9.38212105 50.3729309,9.80332105 C49.4320466,10.2245211 50.2134317,12.2304659 51.0536221,12.7718935 C51.8946181,13.3133211 52.2748385,12.5314383 52.2748385,12.5314383 L51.8350072,10.6860659" id="Fill-152" fill="#D89A68"></path>
                <path d="M59.0867214,3.30132296 C59.0867214,3.30132296 57.6657282,2.29915744 55.6631267,2.47909537 C53.6613308,2.6598402 50.9788437,3.18109537 50.0178206,4.38498503 C49.0769362,5.56305399 48.6951047,8.29762641 49.8720157,9.75568848 C49.9719042,9.73551606 50.0790425,9.72421951 50.1926253,9.72421951 C50.8765387,9.72421951 51.0658433,9.86058503 51.2462869,10.3552126 C51.3437587,10.523854 51.4355915,10.7134747 51.4839246,10.9426333 C51.6240906,11.6042885 51.5797853,11.7648609 51.5797853,11.7648609 L52.0196165,11.6446333 C52.0196165,11.6446333 51.7997009,10.6214885 52.1597825,10.0800609 C52.5206697,9.5386333 53.0209172,9.69920572 53.0209172,8.93668848 C53.0209172,8.17497813 53.181222,7.9942333 53.181222,7.9942333 C53.181222,7.9942333 54.482188,7.19217813 56.1037635,7.0122402 C57.725339,6.83149537 58.5067242,7.9942333 58.5067242,7.9942333 C58.5067242,7.9942333 59.4274697,7.87400572 59.6876629,6.00926779 C59.9478561,4.14372296 59.0867214,3.30132296 59.0867214,3.30132296" id="Fill-153" fill="#976344"></path>
                <path d="M50.0625089,5.16028972 C50.0625089,5.16028972 48.380517,6.20280007 47.6595482,3.95720696 C46.939385,1.71080696 49.3415401,-0.375020623 50.6231729,0.106696618 C51.904,0.587606963 52.8650232,2.67343455 52.8650232,2.67343455 L50.0625089,5.16028972" id="Fill-154" fill="#976344"></path>
                <polygon id="Path-64-Copy-3" stroke="#979797" stroke-width="0.806896552" fill-rule="nonzero" points="53.1664107 94.4436782 55.5830657 95.2505747 92.235667 77.4988506 90.2217878 76.691954"></polygon>
            </g>
            <g id="Group-295" transform="translate(129.909556, 57.931034)">
                <path d="M119.954161,57.7356559 L52.7050961,90.8595663 C52.2660704,91.0758145 51.7505174,91.0733938 51.3131028,90.8531111 L1.30203808,65.6690628 C0.149293627,65.0880973 0.156543592,63.4371869 1.31412135,62.8667111 L68.563992,29.7428007 C69.0022121,29.5257456 69.5177651,29.5281663 69.9543742,29.748449 L119.966244,54.9333042 C121.119794,55.5134628 121.112544,57.16518 119.954161,57.7356559" id="Fill-77" fill="url(#linearGradient-10)"></path>
                <path d="M119.954161,55.3150701 L52.7050961,88.4389804 C52.2660704,88.6552287 51.7505174,88.652808 51.3131028,88.4333321 L1.30203808,63.248477 C0.149293627,62.6675115 0.156543592,61.0166011 1.31412135,60.4461253 L68.563992,27.321408 C69.0022121,27.1051597 69.5177651,27.1075804 69.9543742,27.3278632 L119.966244,52.5127184 C121.119794,53.092877 121.112544,54.7445942 119.954161,55.3150701" id="Fill-80" fill="url(#linearGradient-11)"></path>
                <polygon id="Fill-81" fill="#67ABC4" points="10.9138655 61.6613954 70.4948842 32.8091954 73.7847572 34.3471402 14.2037386 63.1985333"></polygon>
                <polygon id="Fill-81-Copy" fill="#67ABC4" points="17.3582789 64.8889816 76.9392976 36.0367816 80.2291706 37.5747264 20.648152 66.4261195"></polygon>
                <polygon id="Fill-81-Copy-2" fill="#67ABC4" points="23.8026923 68.1165678 83.383711 39.2643678 86.673584 40.8023126 27.0925654 69.6537057"></polygon>
                <polygon id="Fill-81-Copy-3" fill="#67ABC4" points="29.4415541 71.344154 89.0225727 42.491954 92.3124458 44.0298989 32.7314271 72.881292"></polygon>
                <g id="Group-293" transform="translate(46.822526, 0.000000)">
                    <path d="M4.4756457,57.4964029 L6.46482156,63.6921359 C9.78011467,66.3356487 13.7584664,67.9878442 18.3998768,68.6487224 C23.0412871,69.3096006 28.0971091,68.2356735 33.5673427,65.4269412 L35.8051656,60.4703548 L4.4756457,57.4964029 Z" id="Path-75" fill="#A5A4A5" fill-rule="nonzero"></path>
                    <path d="M5.22158665,22.304639 L5.22158665,27.5090548 L17.9025828,33.4569586 L29.091697,35.4395932 L36.3024595,29.9873481 L39.5348703,24.7829323 L38.7889294,19.8263458 C38.1258708,6.44356239 32.6556371,-1.45167212e-12 22.3782285,0.495658645 C12.1008198,0.991317291 6.38193923,8.26097742 5.22158665,22.304639 Z" id="Path-68" fill="#FFFFFF" fill-rule="nonzero"></path>
                    <path d="M31.938705,33.2091292 L28.9549412,34.2004465 L12.2955933,32.217812 L5.08483081,26.7655669 C4.77150006,29.6023134 4.4026737,31.4197284 3.97835173,32.217812 C2.26342065,35.4433302 0.248646983,37.5086197 0.248646983,43.1223022 C0.248646983,49.0169613 2.40542353,58.6682033 9.19993838,62.948648 C14.5718491,66.3328729 22.1846929,67.2357056 26.3565802,65.9225999 C40.0321643,62.948648 39.3267175,51.0528405 39.3267175,43.8657901 C39.3267175,39.0744232 39.5618664,33.2091292 40.0321643,26.2699082 L39.3267175,26.8747486 L31.938705,33.2091292 Z" id="Path-67" fill="#FFFFFF" fill-rule="nonzero"></path>
                    <path d="M11.9350552,19.5785165 C13.6494375,18.3325568 13.6755841,17.2241379 13.6755841,15.365418 C13.6755841,13.5066981 10.4431733,14.2501861 10.4431733,12.5153808 C10.4431733,11.358844 9.61435002,10.615356 7.95670346,10.2849169 C6.95061413,11.1325143 6.20467318,12.4129658 5.71888061,14.1262714 C5.23308804,15.839577 5.06732339,17.9874312 5.22158665,20.5698338 C6.52864723,20.7254678 7.52323516,20.7254678 8.20535044,20.5698338 C9.89574047,20.184148 11.2230823,20.0959562 11.9350552,19.5785165 Z" id="Path-69" fill="#282828" fill-rule="nonzero"></path>
                    <path d="M0.248646983,42.3788142 C4.55852802,47.3354006 10.0287617,50.3093525 16.6593479,51.3006698 C23.2899341,52.2919871 30.4178143,51.3006698 38.0429884,48.3267179" id="Path-71" stroke="#DF126F" stroke-width="0.5" fill-rule="nonzero"></path>
                    <path d="M5.22158665,28.0047135 C10.6918203,29.7395187 12.6809961,28.2525428 14.918819,28.9960308 C17.1566418,29.7395187 22.9003503,33.9526172 30.1111128,31.7221533 C34.9182879,30.2351774 37.976658,28.0047135 39.2862233,25.0307616 C41.7726932,26.8481766 42.0213402,28.7482014 40.0321643,30.730836 C39.736168,31.6159047 42.2290019,34.8654403 42.5186341,39.2004476 C42.9589048,45.7901036 42.2838085,52.4467406 39.2862233,53.2833044 C35.7361228,54.2740637 34.8105776,46.5919127 25.1133453,40.1483503 C22.5189912,38.2428734 16.7095903,38.4433655 14.421525,37.4222277 C11.6257038,36.1744842 11.2869636,34.4815492 9.44858536,32.9612999 C8.92060778,32.5246882 7.20414161,31.8829378 4.29918685,31.0360488 L4.2991959,31.0360177 C3.45914004,30.7911141 2.97667386,29.9115806 3.22157753,29.0715247 C3.4664812,28.2314688 4.34601468,27.7490027 5.18607054,27.9939063 C5.19795104,27.9973699 5.20979056,28.0009725 5.22158665,28.0047135 C5.22158665,28.0047135 5.22158665,28.0047135 5.22158665,28.0047135 Z" id="Path-58" fill="#A5A4A5" fill-rule="nonzero"></path>
                    <path d="M15.212985,31.6258118 C18.8570431,32.2436415 17.8627743,35.1865587 17.9386692,35.9294951 C17.9386692,37.5763909 17.4350088,40.8120042 17.0690023,46.3987715 C16.8842323,49.2191223 16.6360357,52.5145238 16.5200997,57.567949 C16.3757775,59.6065332 15.2035524,62.9428913 12.2197886,62.9428913 C9.23602481,62.9428913 8.49008386,57.9465548 8.49008386,56.7471582 C8.49008386,56.0314662 8.02389253,51.6195716 8.62869967,44.3589956 C8.78398077,42.4948803 9.3179518,39.3546077 10.2306127,34.9381778 C11.1228221,32.3180474 12.7836129,31.2139254 15.212985,31.6258118 Z" id="Path-70" fill="#EEEEEE" fill-rule="nonzero" transform="translate(13.163325, 47.242387) rotate(10.000000) translate(-13.163325, -47.242387) "></path>
                    <polygon id="Path-72" fill="#DF126F" fill-rule="nonzero" points="5.9675276 16.108906 6.71346855 16.3567353 7.95670346 15.1175887 7.95670346 16.8523939 8.70264441 17.3480526 8.70264441 13.3827834"></polygon>
                    <g id="Path-73" fill-rule="nonzero">
                        <use fill="black" fill-opacity="1" filter="url(#filter-13)" xlink:href="#path-12"></use>
                        <use fill="#FFFFFF" xlink:href="#path-12"></use>
                    </g>
                    <path d="M23.1241694,3.2217812 C24.8350268,4.15190735 26.5458841,6.02747168 28.2567414,8.84847418 L28.2567626,8.84846131 C28.4551036,9.1755022 28.8607311,9.31133338 29.2160205,9.16968494 L29.2160205,9.16968494 C29.5617534,9.03184656 29.7302852,8.63983461 29.5924468,8.29410175 C29.5902514,8.28859516 29.5879835,8.28311779 29.5856435,8.27767105 C28.5137785,5.78258921 26.525712,3.84946605 23.6214634,2.47829323 C21.4665229,1.48697594 18.8971707,1.98263458 15.9134069,3.96526916 C18.8971707,2.47829323 21.3007582,2.2304639 23.1241694,3.2217812 Z" id="Path-74" fill="#EAEAEA" fill-rule="nonzero"></path>
                    <path d="M25.3619923,2.32959563 C27.0728496,3.25972179 28.7837069,5.13528611 30.4945643,7.95628862 L30.4945855,7.95627575 C30.6929264,8.28331664 31.0985539,8.41914782 31.4538434,8.27749938 L31.4538434,8.27749938 C31.7995762,8.139661 31.968108,7.74764905 31.8302696,7.40191619 C31.8280743,7.3964096 31.8258063,7.39093223 31.8234664,7.38548549 C30.7516014,4.89040365 28.7635349,2.95728049 25.8592863,1.58610767 C23.7043457,0.594790375 20.8863466,0.842619697 17.4052888,2.32959563 C20.8863466,1.33827834 23.5385811,1.33827834 25.3619923,2.32959563 Z" id="Path-74-Copy" fill="#E5E5E5" fill-rule="nonzero"></path>
                    <path d="M26.3565802,1.33827834 C28.897643,2.28804334 30.8300681,4.19326049 32.1538554,7.05392979 L32.1538393,7.05393723 C32.2453477,7.25168438 32.4798356,7.33780794 32.6775827,7.24629957 C32.6841691,7.24325171 32.6906701,7.2400227 32.6970783,7.23661622 L32.6970783,7.23661622 C32.9137014,7.12146382 33.0087493,6.86158517 32.9175357,6.63384468 C31.8716787,4.02257622 29.8504593,2.0095577 26.8538742,0.594790375 C24.6989337,-0.396526916 21.8809345,-0.148697594 18.3998768,1.33827834 C21.0521112,0.346961052 23.7043457,0.346961052 26.3565802,1.33827834 Z" id="Path-74-Copy-2" fill="#E5E5E5" fill-rule="nonzero"></path>
                    <ellipse id="Oval-24" fill="#DF126F" fill-rule="nonzero" cx="19.8917587" cy="19.5785165" rx="3.97835173" ry="4.21309849"></ellipse>
                    <ellipse id="Oval-24-Copy" fill="#FFFFFF" fill-rule="nonzero" cx="19.6431117" cy="19.8263458" rx="3.23241078" ry="3.46961052"></ellipse>
                    <g id="Group-292" transform="translate(0.000000, 38.165716)">
                        <mask id="mask-15" fill="white">
                            <use xlink:href="#path-14"></use>
                        </mask>
                        <g id="Mask" fill-rule="nonzero"></g>
                        <g mask="url(#mask-15)" fill-rule="nonzero">
                            <g transform="translate(-1.491882, 0.991317)">
                                <ellipse id="Oval-24-Copy-2" fill="#DF126F" cx="1.4918819" cy="3.96526916" rx="1.4918819" ry="3.96526916"></ellipse>
                                <ellipse id="Oval-24-Copy-3" fill="#FFFFFF" cx="1.39863928" cy="4.19852029" rx="1.21215404" ry="3.26551578"></ellipse>
                            </g>
                        </g>
                    </g>
                </g>
            </g>
            <g id="Group-3" transform="translate(134.040956, 34.482759)">
                <path d="M25.7007472,24.9234207 C25.4067208,24.7047517 25.0498614,24.5861379 24.6833354,24.5861379 L1.70938066,24.5861379 C0.766079644,24.5861379 0,23.8195862 0,22.8739034 L0,1.71304138 C0,0.766551724 0.766079644,0 1.70938066,0 L35.2054514,0 C36.149558,0 36.9148321,0.766551724 36.9148321,1.71304138 L36.9148321,29.8495241 C36.9148321,31.2559448 35.3150064,32.0636483 34.1864285,31.2252828 L25.7007472,24.9234207 Z" id="Fill-17" fill="#45CFFF"></path>
                <path d="M11.0245632,12.6593379 C11.0245632,13.8220759 10.0828733,14.7653379 8.92126778,14.7653379 C7.75966226,14.7653379 6.81797235,13.8220759 6.81797235,12.6593379 C6.81797235,11.4957931 7.75966226,10.5517241 8.92126778,10.5517241 C10.0828733,10.5517241 11.0245632,11.4957931 11.0245632,12.6593379" id="Fill-18" fill="#FFFFFF"></path>
                <path d="M20.3226038,12.6593379 C20.3226038,13.8220759 19.3809139,14.7653379 18.2193084,14.7653379 C17.0568973,14.7653379 16.1152074,13.8220759 16.1152074,12.6593379 C16.1152074,11.4957931 17.0568973,10.5517241 18.2193084,10.5517241 C19.3809139,10.5517241 20.3226038,11.4957931 20.3226038,12.6593379" id="Fill-19" fill="#FFFFFF"></path>
                <path d="M30.2388489,12.6593379 C30.2388489,13.8220759 29.297159,14.7653379 28.136359,14.7653379 C26.973948,14.7653379 26.0322581,13.8220759 26.0322581,12.6593379 C26.0322581,11.4957931 26.973948,10.5517241 28.136359,10.5517241 C29.297159,10.5517241 30.2388489,11.4957931 30.2388489,12.6593379" id="Fill-20" fill="#FFFFFF"></path>
            </g>
        </g>
    </g>
</svg>