<svg width="457" height="521" viewBox="0 0 457 521" fill="none" xmlns="http://www.w3.org/2000/svg">
<rect width="455" height="521" fill="black" fill-opacity="0" transform="translate(1)"/>
<path d="M211.72 508.895C213.993 507.186 226.838 497.786 223.428 487.998C222.291 484.658 219.449 482.094 204.559 474.248C182.961 462.828 172.277 457.157 163.865 457.002C147.042 456.847 132.834 465.858 126.013 473.704C123.74 476.423 116.693 484.813 119.762 495.456C123.513 508.662 139.767 515.11 142.723 516.275C165.229 525.287 195.692 520.626 211.72 508.895Z" fill="#EDF0F5"/>
<path fill-rule="evenodd" clip-rule="evenodd" d="M19.7279 250.728H11.7279V252.728H19.7279V260.728H21.7279V252.728H29.7279V250.728H21.7279V242.728H19.7279V250.728Z" fill="#C4C4C4"/>
<path fill-rule="evenodd" clip-rule="evenodd" d="M337.5 39.4L325.1 27L322 30.1L334.4 42.5L322 54.9L325.1 58L337.5 45.6L349.9 58L353 54.9L340.6 42.5L353 30.1L349.9 27L337.5 39.4Z" fill="#CED2D7"/>
<path fill-rule="evenodd" clip-rule="evenodd" d="M370.728 293.314L365.071 287.657L363.657 289.071L369.314 294.728L363.657 300.385L365.071 301.799L370.728 296.142L376.385 301.799L377.799 300.385L372.142 294.728L377.799 289.071L376.385 287.657L370.728 293.314Z" fill="#C4C4C4"/>
<path d="M19.5 72C29.7173 72 38 63.7173 38 53.5C38 43.2827 29.7173 35 19.5 35C9.28273 35 1 43.2827 1 53.5C1 63.7173 9.28273 72 19.5 72Z" stroke="#CED2D7" stroke-width="2"/>
<path d="M429 179C443.912 179 456 166.912 456 152C456 137.088 443.912 125 429 125C414.088 125 402 137.088 402 152C402 166.912 414.088 179 429 179Z" stroke="#CED2D7" stroke-width="2"/>
<path d="M104 382C109.523 382 114 377.523 114 372C114 366.477 109.523 362 104 362C98.4772 362 94 366.477 94 372C94 377.523 98.4772 382 104 382Z" stroke="#EDF0F5" stroke-width="3"/>
<path d="M278.602 199.251L208.398 158.749C204.892 156.737 202 151.314 202 146.59V68.5603C202 63.9241 204.892 61.7371 208.398 63.7491L278.602 104.251C282.108 106.263 285 111.686 285 116.41V194.44C285 199.076 282.108 201.263 278.602 199.251Z" fill="#EDF0F5"/>
<g filter="url(#filter0_d)">
<path d="M263.582 213.869L192.399 172.722C188.844 170.678 185.912 165.169 185.912 160.37V81.0985C185.912 76.3885 188.844 74.1668 192.399 76.2107L263.582 117.357C267.137 119.401 270.07 124.911 270.07 129.71V208.981C269.981 213.691 267.137 215.913 263.582 213.869Z" fill="#67C18E"/>
</g>
<path d="M240.818 151.109C247.851 146.997 247.79 133.806 240.681 121.645C233.572 109.484 222.106 102.96 215.073 107.072C208.039 111.184 208.101 124.375 215.21 136.536C222.319 148.697 233.784 155.221 240.818 151.109Z" fill="white"/>
<path d="M236.922 123.045L216.304 120.379C214.883 120.201 214.883 121.09 216.038 122.156L221.192 127.044L223.147 135.22C223.414 136.109 223.236 136.375 223.947 136.731C224.48 137.086 224.747 136.909 225.014 136.731C225.191 136.642 226.347 136.02 227.591 135.309L232.923 143.041C233.9 144.196 234.611 144.374 234.878 143.129L238.433 125.889C238.699 124.378 237.811 123.134 236.922 123.045ZM221.903 127.044L233.545 125.267C234.167 125.178 234.7 125.711 234.167 125.889L224.214 130.599L223.858 135.22L221.903 127.044Z" fill="#70A7D4"/>
<path d="M310.149 428.576L218.615 375.788C213.994 373.122 210.35 366.012 210.35 359.969V257.948C210.35 251.816 214.083 249.061 218.615 251.638L310.149 304.426C314.77 307.092 318.413 314.202 318.413 320.245V422.177C318.413 428.398 314.681 431.242 310.149 428.576Z" fill="#E5F8FF"/>
<path d="M296.108 427.954L211.15 378.898C206.884 376.41 203.418 369.834 203.418 364.146V269.501C203.418 263.813 206.884 261.236 211.15 263.635L296.108 312.691C300.373 315.179 303.839 321.756 303.839 327.443V422.089C303.75 427.776 300.373 430.353 296.108 427.954Z" stroke="#00B2CC" stroke-width="2.497" stroke-miterlimit="10" stroke-dasharray="8 5"/>
<path d="M269.229 355.811C277.746 350.832 277.662 334.842 269.041 320.097C260.421 305.352 246.529 297.435 238.012 302.414C229.496 307.393 229.58 323.382 238.2 338.128C246.82 352.873 260.713 360.79 269.229 355.811Z" stroke="#4ED5E9" stroke-width="2.497" stroke-miterlimit="10" stroke-dasharray="8 5"/>
<path d="M288.376 391.607L218.793 351.438C216.838 350.282 215.238 347.261 215.238 344.684C215.238 342.107 216.838 340.862 218.793 342.018L288.376 382.186C290.331 383.342 291.931 386.363 291.931 388.94C291.931 391.518 290.331 392.762 288.376 391.607Z" stroke="#4ED5E9" stroke-width="1.6647" stroke-miterlimit="10"/>
<path d="M288.376 407.692L218.793 367.523C216.838 366.368 215.238 363.346 215.238 360.769C215.238 358.192 216.838 356.948 218.793 358.103L288.376 398.272C290.331 399.427 291.931 402.449 291.931 405.026C291.931 407.603 290.331 408.847 288.376 407.692Z" stroke="#4ED5E9" stroke-width="1.6647" stroke-miterlimit="10"/>
<path d="M257.095 183.476L198.797 149.794C197.198 148.817 195.865 146.328 195.865 144.107C195.865 141.885 197.198 140.907 198.797 141.885L257.095 175.566C258.694 176.544 260.027 179.032 260.027 181.254C260.027 183.387 258.783 184.364 257.095 183.476Z" fill="white"/>
<path d="M257.095 199.472L198.797 165.791C197.198 164.813 195.865 162.325 195.865 160.103C195.865 157.881 197.198 156.904 198.797 157.881L257.095 191.563C258.694 192.54 260.027 195.029 260.027 197.25C260.027 199.383 258.783 200.361 257.095 199.472Z" fill="white"/>
<path d="M369.513 245.95L298.33 204.804C294.775 202.76 291.842 197.25 291.842 192.451V113.18C291.842 108.47 294.775 106.249 298.33 108.293L369.513 149.439C373.068 151.483 376 156.993 376 161.792V241.063C375.911 245.773 373.068 247.994 369.513 245.95Z" fill="#EDF0F5"/>
<path d="M167.694 138.33L96.5105 97.1838C92.9558 95.1398 90.0232 89.63 90.0232 84.831V5.64883C90.0232 0.938775 92.9558 -1.28295 96.5105 0.761037L167.694 41.9073C171.248 43.9513 174.181 49.4612 174.181 54.2601V133.531C174.181 138.241 171.248 140.463 167.694 138.33Z" fill="#EDF0F5"/>
<path d="M261.542 457.782L237.878 471.468C236.707 472.185 236.707 473.88 237.878 474.532L261.542 488.218C263.362 489.261 265.638 489.261 267.458 488.218L291.122 474.532C292.293 473.815 292.293 472.12 291.122 471.468L267.393 457.782C265.573 456.739 263.362 456.739 261.542 457.782Z" fill="#E5F8FF"/>
<path d="M260.383 432.131L228.035 450.793C226.436 451.771 226.436 454.082 228.035 454.97L260.383 473.633C262.871 475.055 265.982 475.055 268.47 473.633L300.818 454.97C302.418 453.993 302.418 451.682 300.818 450.793L268.47 432.131C265.893 430.709 262.871 430.709 260.383 432.131Z" fill="#99D8E8"/>
<path d="M48.1506 324.06L17.1386 341.99C15.6205 342.859 15.6205 345.141 17.1386 346.01L48.1506 363.94C50.5361 365.353 53.4639 365.353 55.8494 363.94L86.8614 346.01C88.3795 345.141 88.3795 342.859 86.8614 341.99L55.8494 324.06C53.4639 322.647 50.5361 322.647 48.1506 324.06Z" fill="#EDF0F5"/>
<path d="M47.1883 285.337L8.42319 307.963C6.5256 309.06 6.5256 311.94 8.42319 313.037L47.1883 335.663C50.1702 337.446 53.8298 337.446 56.8117 335.663L95.5768 313.037C97.4744 311.94 97.4744 309.06 95.5768 307.963L56.8117 285.337C53.8298 283.554 50.1702 283.554 47.1883 285.337Z" fill="#CDF4D7"/>
<path d="M95.1776 210.581L51.8101 185.52C50.7437 184.898 50.1216 183.831 50.1216 182.676V140.374C50.1216 137.797 52.8765 136.198 55.0982 137.531L98.4657 162.592C99.5321 163.214 100.154 164.28 100.154 165.435V207.737C100.154 210.225 97.3993 211.825 95.1776 210.581Z" fill="#EBF0FF"/>
<path d="M68.6341 230.452L13.1599 198.601C11.7957 197.81 11 196.455 11 194.987V141.225C11 137.949 14.524 135.916 17.3659 137.611L72.8401 169.461C74.2043 170.252 75 171.607 75 173.075V226.837C75 230 71.476 232.033 68.6341 230.452Z" fill="#B6C1FA"/>
<path d="M242.165 337.308C241.365 337.308 240.565 337.219 239.765 336.952C238.877 336.686 230.879 334.108 221.547 327.088C217.904 324.333 217.193 319.178 219.859 315.535C222.614 311.891 227.768 311.18 231.412 313.846C238.521 319.178 244.564 321.134 244.653 321.134C249.008 322.467 251.407 327.088 250.074 331.442C248.919 334.997 245.631 337.308 242.165 337.308Z" fill="#CDD1D7"/>
<path d="M216.305 154.949C212.039 154.949 208.395 151.661 208.04 147.395C207.062 135.22 211.506 125.355 212.039 124.289C213.994 120.201 218.882 118.424 223.059 120.379C227.146 122.334 228.924 127.222 226.969 131.31C226.88 131.487 223.858 138.241 224.48 146.062C224.836 150.594 221.459 154.593 216.927 154.949C216.749 154.949 216.571 154.949 216.305 154.949Z" fill="#CDD1D7"/>
<path d="M231.501 320.245C229.901 320.245 228.479 319.089 228.213 317.49C227.946 315.712 229.101 314.024 230.968 313.668L238.966 312.335C240.743 312.069 242.432 313.224 242.787 315.09C243.054 316.868 241.898 318.556 240.032 318.912L232.034 320.245C231.856 320.245 231.679 320.245 231.501 320.245Z" fill="#CDD1D7"/>
<path d="M220.926 151.75C220.215 151.75 219.504 151.483 218.882 151.039C217.46 149.883 217.193 147.839 218.348 146.417L224.303 138.864C225.458 137.442 227.502 137.175 228.924 138.33C230.346 139.486 230.612 141.53 229.457 142.952L223.503 150.505C222.881 151.305 221.903 151.75 220.926 151.75Z" fill="#CDD1D7"/>
<path d="M132.413 479.764V473.099H134.901V476.476C138.367 473.81 147.432 466.967 149.298 465.634C153.83 462.345 158.54 462.79 161.206 464.834L163.161 468.566C163.161 469.277 162.984 470.077 162.628 470.877L152.675 485.363C151.075 488.651 144.855 489.539 139.256 487.318C134.724 485.54 132.147 482.43 132.413 479.764Z" fill="#6F5FE8"/>
<path d="M132.413 477.099C132.591 467.056 132.858 466.434 135.524 463.768C138.278 461.013 148.943 459.591 153.386 459.147C154.008 459.058 154.63 458.969 155.252 458.969C155.341 458.969 155.341 458.969 155.341 458.969C160.673 459.058 164.672 464.035 162.628 468.212L152.675 482.697C151.075 485.985 144.855 486.874 139.256 484.652C134.724 482.964 132.058 479.765 132.413 477.099Z" fill="#B6C1FA"/>
<path d="M168.849 491.494L171.782 490.161C173.381 488.562 175.425 487.584 177.914 487.318C177.914 487.318 195.328 487.979 200.664 488.74C206 489.5 209.5 489.5 209.551 496.915C209.106 499.048 207.151 501.003 203.33 502.07L181.468 506.602C176.047 508.202 170.36 504.825 169.116 499.226C168.938 498.515 168.938 497.893 168.849 497.182V491.494Z" fill="#6F5FE8"/>
<path d="M203.241 500.382L181.379 504.914C175.958 506.514 170.271 503.137 169.027 497.538C167.783 491.762 168.671 481.631 178.358 480.831C187.6 480.12 196.309 483.764 200.486 485.363C205.551 487.229 208.84 490.784 209.373 493.539C209.995 496.205 208.04 498.96 203.241 500.382Z" fill="#B6C1FA"/>
<path d="M152.764 238.663C148.32 238.663 144.233 235.553 143.255 231.021C142.1 225.777 145.388 220.534 150.631 219.379C193.91 209.692 201.463 197.784 203.507 164.369C203.863 158.948 208.484 154.949 213.816 155.215C219.237 155.571 223.325 160.192 222.969 165.524C220.126 210.225 204.218 227.288 154.808 238.308C154.275 238.663 153.475 238.663 152.764 238.663Z" fill="#6F5FE8"/>
<path d="M162.628 352.682C162.717 348.416 159.34 344.95 155.074 344.862C150.898 344.773 147.343 348.15 147.254 352.415C146.454 393.117 138.901 447.505 138.456 450.616L135.879 464.835C135.168 469.011 137.923 473.011 142.1 473.81C142.544 473.899 142.988 473.899 143.433 473.899C147.076 473.899 150.364 471.233 150.987 467.501L153.564 453.104V453.015C153.564 452.926 153.564 452.926 153.564 452.837C153.919 450.616 161.74 395.339 162.628 352.682Z" fill="#CDD1D7"/>
<path d="M187.689 472.211C187.689 471.944 187.334 447.15 187.334 385.119C187.334 380.854 183.868 377.388 179.602 377.388C175.336 377.388 171.871 380.854 171.871 385.119C171.871 447.239 172.137 472.122 172.226 472.389V486.074C172.226 490.34 175.692 493.806 179.958 493.806C184.223 493.806 187.689 490.34 187.689 486.074V472.3C187.689 472.3 187.689 472.3 187.689 472.211Z" fill="#CDD1D7"/>
<path d="M223.947 324.777C222.436 324.777 220.926 324.244 219.681 323.178C219.593 323.089 215.682 319.712 207.684 313.669C204.841 311.536 204.307 307.537 206.44 304.693C208.573 301.849 212.572 301.316 215.416 303.449C224.036 309.847 228.124 313.491 228.302 313.669C230.968 315.979 231.234 320.067 228.835 322.733C227.502 324.066 225.724 324.777 223.947 324.777Z" fill="#99D8E8"/>
<path d="M213.372 170.501C213.105 170.501 212.75 170.501 212.483 170.412C209.017 169.879 206.529 166.679 207.062 163.125L209.017 149.35C209.551 145.884 212.75 143.396 216.305 143.929C219.77 144.462 222.259 147.661 221.725 151.216L219.77 164.991C219.237 168.19 216.482 170.501 213.372 170.501Z" fill="#99D8E8"/>
<path d="M194.621 421.289C194.621 409.469 198.886 310.558 189.289 294.029C189.289 289.585 189.289 285.231 189.289 280.787C194.887 276.699 195.687 249.505 195.687 239.374C195.687 200.183 146.188 205.515 142.366 227.821C141.122 235.109 139.078 266.035 145.832 275.277V288.074C127.881 312.424 135.079 348.505 136.501 414.268C136.501 417.556 143.788 420.845 150.009 423.6C150.364 423.777 151.075 424.044 151.875 424.31C152.586 424.577 156.852 425.999 158.007 426.354C159.696 426.888 161.117 427.332 161.828 427.51C177.114 431.331 194.621 430.976 194.621 421.289Z" fill="#6F5FE8"/>
<path d="M145.743 275.277C145.743 277.854 149.12 280.52 154.008 282.653C155.43 283.275 161.739 285.319 163.339 285.764C175.425 288.696 189.2 288.43 189.2 280.787C189.2 280.787 189.2 280.787 189.2 294.028C189.2 301.671 175.425 301.938 163.339 299.005C161.651 298.561 155.341 296.517 154.008 295.895C149.12 293.762 145.743 291.096 145.743 288.519C145.743 285.853 145.743 275.277 145.743 275.277Z" fill="#00B2CC"/>
<path d="M211.594 318.29C209.106 318.29 206.618 317.312 204.752 315.446C181.824 292.607 179.868 287.541 174.981 237.597C174.448 232.265 178.358 227.466 183.779 226.933C189.111 226.399 193.91 230.31 194.443 235.731C198.975 282.12 199.686 282.92 218.526 301.583C222.347 305.404 222.347 311.536 218.615 315.357C216.571 317.312 214.083 318.29 211.594 318.29Z" fill="#6F5FE8"/>
<path d="M195.687 195.029C195.687 188.985 194.176 174.322 193.643 173.256C191.866 169.879 189.644 167.746 187.422 165.702C185.823 164.28 184.045 163.036 182.09 162.147C179.869 161.081 177.38 160.37 174.803 160.103C174.181 160.014 173.47 160.014 172.759 160.014C167.161 160.014 162.006 162.147 158.185 165.613C151.164 171.834 147.432 177.166 145.388 181.076C145.121 181.254 144.855 181.343 144.588 181.52C143.077 182.409 137.568 185.875 134.191 192.54C130.458 199.916 133.835 201.783 130.547 208.27C126.548 216.179 120.594 215.113 118.461 222.045C116.595 227.91 120.594 229.599 118.994 236.619C117.306 244.084 111.44 244.884 111.263 250.838C111.174 254.837 113.484 259.37 117.039 261.591C124.504 266.213 131.969 257.592 140.589 261.769C147.165 264.879 145.566 271.1 152.142 274.033C159.162 277.143 169.827 273.944 173.47 267.546C177.025 261.147 170.626 256.526 174.27 248.261C177.647 240.352 184.667 240.796 186.178 233.687C187.689 226.577 181.646 222.222 184.49 217.779C186.711 214.313 191.066 216.002 194.087 211.647C195.954 209.07 195.954 206.315 196.043 201.96C196.22 200.094 196.131 197.783 195.687 195.029Z" fill="#2A3646"/>
<g filter="url(#filter1_d)">
<path d="M153.76 106.508C165.539 99.6211 165.409 77.4824 153.47 57.0593C141.53 36.6362 122.302 25.6625 110.523 32.5489C98.7438 39.4353 98.8739 61.574 110.813 81.9971C122.753 102.42 141.981 113.394 153.76 106.508Z" fill="white"/>
</g>
<path d="M133.035 49.4612C122.549 43.4181 114.017 47.5061 114.017 58.6147C114.017 64.9244 116.772 72.2116 121.127 78.3436V85.9863L127.614 85.6309C129.392 87.1416 131.169 88.4747 133.035 89.63C143.522 95.673 152.053 91.5851 152.053 80.4765C152.053 69.3678 143.61 55.5043 133.035 49.4612ZM134.99 77.7215L130.191 69.0124L120.771 69.4567L131.08 62.7915L136.057 71.5896L145.388 71.0563L134.99 77.7215Z" fill="#487FFA"/>
<g filter="url(#filter2_d)">
<path d="M333.877 211.647C350.495 221.245 363.914 213.602 363.914 194.495C363.914 175.389 350.495 152.194 333.877 142.596C317.258 132.998 303.839 140.641 303.839 159.748C303.839 178.854 317.347 202.049 333.877 211.647Z" fill="white"/>
</g>
<path d="M315.126 165.435C315.126 165.346 315.126 165.257 315.037 165.257C314.504 162.947 315.481 161.436 317.17 161.703L344.541 166.857C344.896 166.946 345.163 167.124 345.518 167.301C347.029 168.19 348.273 169.79 348.718 171.745L348.807 171.922C349.34 174.322 348.007 175.388 346.585 175.122C346.585 175.122 346.318 175.033 319.391 170.145C319.036 170.056 318.68 169.967 318.325 169.701C316.814 168.99 315.57 167.212 315.126 165.435Z" fill="#8FC8D8"/>
<path d="M319.658 183.564C319.658 183.476 319.569 183.387 319.569 183.387C319.036 181.076 320.013 179.565 321.702 179.832L349.073 184.897C349.429 184.897 349.784 185.075 350.14 185.342C351.65 186.231 352.894 187.919 353.339 189.696L353.428 189.874C353.694 191.029 353.516 192.274 353.072 192.807C352.717 193.251 351.473 193.251 351.473 193.251L324.101 188.274C323.746 188.186 323.301 188.008 322.946 187.83C321.346 187.119 320.102 185.431 319.658 183.564Z" fill="#BF1D63"/>
<path d="M342.319 196.628L333.255 160.014L333.166 159.837C332.632 157.526 333.61 156.015 335.298 156.282C335.654 156.282 336.009 156.46 336.365 156.637C336.898 156.904 337.431 157.348 337.876 157.882C338.675 158.77 339.298 159.926 339.564 161.081L348.718 197.695V197.784C349.251 200.183 348.273 201.694 346.585 201.338C346.229 201.338 345.874 201.161 345.518 200.983C344.096 200.272 342.763 198.406 342.319 196.628Z" fill="#D6A435"/>
<path d="M328.722 194.051L319.569 157.437C319.569 157.348 319.569 157.259 319.48 157.259C318.947 154.949 319.924 153.438 321.613 153.704C321.968 153.704 322.324 153.882 322.679 154.06C324.19 154.949 325.434 156.726 325.879 158.592L335.032 195.206C335.032 195.295 335.121 195.384 335.121 195.384C335.654 197.695 334.677 199.205 332.988 198.939C332.633 198.939 332.277 198.761 331.922 198.583C330.5 197.695 329.256 195.917 328.722 194.051Z" fill="#72B690"/>
<path d="M341.075 191.474L347.385 192.629L345.341 184.275L338.942 183.12L341.075 191.474Z" fill="#AE252B"/>
<path d="M327.567 189.074L333.877 190.141L331.744 181.698L325.434 180.632L327.567 189.074Z" fill="#32193A"/>
<path d="M336.543 173.256L342.852 174.411L340.808 166.235L334.41 165.08L336.543 173.256Z" fill="#6F8442"/>
<path d="M329.344 172.011L327.3 163.658L320.902 162.414L322.946 170.767L329.344 172.011Z" fill="#56917D"/>
<defs>
<filter id="filter0_d" x="165.912" y="55.4497" width="124.158" height="179.18" filterUnits="userSpaceOnUse" color-interpolation-filters="sRGB">
<feFlood flood-opacity="0" result="BackgroundImageFix"/>
<feColorMatrix in="SourceAlpha" type="matrix" values="0 0 0 0 0 0 0 0 0 0 0 0 0 0 0 0 0 0 255 0"/>
<feOffset/>
<feGaussianBlur stdDeviation="10"/>
<feColorMatrix type="matrix" values="0 0 0 0 0.780392 0 0 0 0 0.780392 0 0 0 0 0.780392 0 0 0 0.7 0"/>
<feBlend mode="normal" in2="BackgroundImageFix" result="effect1_dropShadow"/>
<feBlend mode="normal" in="SourceGraphic" in2="effect1_dropShadow" result="shape"/>
</filter>
<filter id="filter1_d" x="91.7729" y="20.4927" width="80.737" height="98.071" filterUnits="userSpaceOnUse" color-interpolation-filters="sRGB">
<feFlood flood-opacity="0" result="BackgroundImageFix"/>
<feColorMatrix in="SourceAlpha" type="matrix" values="0 0 0 0 0 0 0 0 0 0 0 0 0 0 0 0 0 0 255 0"/>
<feOffset/>
<feGaussianBlur stdDeviation="5"/>
<feColorMatrix type="matrix" values="0 0 0 0 0.780392 0 0 0 0 0.780392 0 0 0 0 0.780392 0 0 0 0.6 0"/>
<feBlend mode="normal" in2="BackgroundImageFix" result="effect1_dropShadow"/>
<feBlend mode="normal" in="SourceGraphic" in2="effect1_dropShadow" result="shape"/>
</filter>
<filter id="filter2_d" x="293.839" y="128.454" width="80.0747" height="97.3343" filterUnits="userSpaceOnUse" color-interpolation-filters="sRGB">
<feFlood flood-opacity="0" result="BackgroundImageFix"/>
<feColorMatrix in="SourceAlpha" type="matrix" values="0 0 0 0 0 0 0 0 0 0 0 0 0 0 0 0 0 0 255 0"/>
<feOffset/>
<feGaussianBlur stdDeviation="5"/>
<feColorMatrix type="matrix" values="0 0 0 0 0.780392 0 0 0 0 0.780392 0 0 0 0 0.780392 0 0 0 0.6 0"/>
<feBlend mode="normal" in2="BackgroundImageFix" result="effect1_dropShadow"/>
<feBlend mode="normal" in="SourceGraphic" in2="effect1_dropShadow" result="shape"/>
</filter>
</defs>
</svg>
